<?xml version="1.0" standalone="no"?> <!DOCTYPE svg PUBLIC "-//W3C//DTD SVG 1.0//EN" "http://www.w3.org/TR/2001/REC-SVG-20010904/DTD/svg10.dtd" > <svg xmlns="http://www.w3.org/2000/svg" width="100%" height="100%">
<defs >
<font horiz-adv-x="278" ><font-face
    font-family="Dungeon"
    units-per-em="1000"
    panose-1="0 0 4 0 0 0 0 0 0 0"
    ascent="1012"
    descent="-200"
    alphabetic="0" />
<missing-glyph horiz-adv-x="395" d="M10 0V800H385V0H10ZM72 63H322V738H72V63Z" />
<glyph unicode=" " glyph-name="space" horiz-adv-x="122" />
<glyph unicode="!" glyph-name="exclam" horiz-adv-x="132" d="M116 711Q105 730 76 733Q58 735 29 721Q18 716 10 712V696Q13 697 22 701Q36 707 37 693Q37 689 37 687V668Q37 663 38 652L61 340H90L121 677V677Q122 700 116 711ZM88 288Q77 284 55 276Q41 272
44 253Q43 232 55 232Q60 232 67 236Q82 245 98 259Q104 264 104 278Q104 290 97 290Q93 290 88 288Z" />
<glyph unicode="&quot;" glyph-name="quotedbl" horiz-adv-x="222" d="M106 712Q106 732 95 732Q93 732 41 715Q20 708 24 681Q22 649 41 649Q49 649 67 659Q69 650 68 644Q68 599 10 557V545Q103 572 106 696V696V712ZM211 712Q212 731 200 731Q201 731 147 714Q126
707 129 681Q127 648 146 648Q154 648 172 658Q174 650 174 644Q173 598 115 557V544Q208 571 211 696V696Q211 704 211 712Z" />
<glyph unicode="#" glyph-name="numbersign" horiz-adv-x="387" d="M304 558L336 715L305 721L271 558L165 559L188 668Q193 695 191 704Q189 713 178 715Q166 717 137 709L135 695L145 697Q157 701 157 688Q156 685 156 683L131 559L30 560V528H39L124 527L103
421L16 422L10 393H98L65 230L97 224L131 393L237 392L213 276Q208 250 210 241Q212 232 223 230Q242 227 264 236L267 250Q264 249 256 248Q244 244 244 256Q245 260 245 262L271 392L349 391L354 420H277L298 525L371 524L377 559L376 558H304ZM242 421H137L159
526L262 525L242 421ZM304 558L336 715L305 721L271 558L165 559L188 668Q193 695 191 704Q189 713 178 715Q166 717 137 709L135 695L145 697Q157 701 157 688Q156 685 156 683L131 559L30 560V528H39L124 527L103 421L16 422L10 393H98L65 230L97 224L131 393L237
392L213 276Q208 250 210 241Q212 232 223 230Q242 227 264 236L267 250Q264 249 256 248Q244 244 244 256Q245 260 245 262L271 392L349 391L354 420H277L298 525L371 524L377 559L376 558H304ZM242 421H137L159 526L262 525L242 421Z" />
<glyph unicode="$" glyph-name="dollar" horiz-adv-x="353" d="M343 361Q343 419 300 460Q274 485 207 517L208 684Q259 665 274 632Q281 618 276 613Q275 611 260 605L270 595Q298 600 303 601Q323 607 326 621Q329 637 303 664Q269 700 209 709V769H183V712Q171
712 171 712Q117 713 79 680Q38 645 38 593Q37 537 84 499Q105 482 181 444L180 239Q98 244 66 326Q57 348 69 352Q75 354 80 356L70 367Q54 364 36 359T14 338Q10 313 47 274Q97 222 180 218L179 152H205V218Q267 221 304 260T343 361ZM93 625Q93 655 117 673T172
691Q175 691 183 690L182 530Q93 574 93 625ZM205 240L207 431Q284 389 283 333Q282 251 205 240Z" />
<glyph unicode="%" glyph-name="percent" horiz-adv-x="397" d="M179 582Q179 628 160 663Q137 707 95 707Q52 708 29 664Q10 629 10 583Q10 535 28 502Q51 460 94 459Q136 459 159 501Q179 537 179 582ZM48 584Q48 695 95 695Q141 695 140 583Q139 472 94 472Q48
473 48 584ZM304 462Q262 463 238 419Q219 384 218 338Q217 292 237 257Q260 214 302 214Q345 213 368 256Q387 290 387 337Q387 384 369 418Q346 461 304 462ZM302 227Q256 227 257 339Q258 450 303 450Q349 450 348 338Q348 227 302 227ZM81 230Q82 231 84 235L324
672Q336 694 336 702Q336 715 310 718Q300 719 293 719L287 708L297 707Q309 706 304 697Q303 695 302 692L61 255Q49 233 49 225Q49 210 76 209Q86 208 92 208L98 219L89 220Q77 221 81 230ZM179 582Q179 628 160 663Q137 707 95 707Q52 708 29 664Q10 629 10
583Q10 535 28 502Q51 460 94 459Q136 459 159 501Q179 537 179 582ZM48 584Q48 695 95 695Q141 695 140 583Q139 472 94 472Q48 473 48 584ZM304 462Q262 463 238 419Q219 384 218 338Q217 292 237 257Q260 214 302 214Q345 213 368 256Q387 290 387 337Q387 384
369 418Q346 461 304 462ZM302 227Q256 227 257 339Q258 450 303 450Q349 450 348 338Q348 227 302 227ZM81 230Q82 231 84 235L324 672Q336 694 336 702Q336 715 310 718Q300 719 293 719L287 708L297 707Q309 706 304 697Q303 695 302 692L61 255Q49 233 49 225Q49
210 76 209Q86 208 92 208L98 219L89 220Q77 221 81 230Z" />
<glyph unicode="&amp;" glyph-name="ampersand" horiz-adv-x="431" d="M395 275Q375 275 322 346Q370 402 370 439Q370 473 336 500Q323 487 323 474Q323 467 333 454T343 428Q343 403 309 364Q272 419 196 526Q246 556 263 572Q297 603 297 643Q297 678 262 700Q232
720 195 720Q153 721 120 698T86 633Q85 591 131 519Q10 453 12 358Q13 305 53 266T145 226Q216 226 283 295Q295 282 325 248Q344 226 365 229Q379 231 405 255Q405 255 421 271L415 288Q398 276 395 275ZM193 692Q217 692 234 675T251 634Q251 587 183 546Q135
616 136 641Q136 663 153 677T193 692ZM177 274Q135 276 104 315Q75 351 75 394Q76 449 144 498Q184 436 269 313Q231 271 177 274Z" />
<glyph unicode="&apos;" glyph-name="quotesingle" horiz-adv-x="116" d="M106 714Q106 733 94 733Q92 733 41 717Q20 710 24 683Q22 650 41 650Q49 650 66 660Q68 652 68 646Q68 601 10 559V546Q102 573 106 698V698V714Z" />
<glyph unicode="(" glyph-name="parenleft" horiz-adv-x="203" d="M98 80Q48 172 34 210Q10 274 11 350Q12 535 103 681V681Q125 721 137 721Q147 721 169 695Q174 689 183 679L175 663Q171 667 159 678Q152 684 148 684Q145 684 144 681Q60 551 59 350Q58 278
85 209Q113 135 163 88Q171 86 176 92L185 103L193 87Q174 58 144 42Q138 38 133 38Q120 38 98 79H99L98 80Z" />
<glyph unicode=")" glyph-name="parenright" horiz-adv-x="206" d="M104 77Q157 174 170 207Q196 272 196 346Q196 532 108 678V678Q87 719 75 719Q64 719 42 693Q37 687 28 677L36 661Q56 681 63 681Q66 681 67 679Q149 548 148 346Q147 273 120 205Q90 133 39
86Q32 84 27 91L18 101L10 86Q24 58 58 40Q64 36 69 36Q82 36 104 76V76V77Z" />
<glyph unicode="*" glyph-name="asterisk" horiz-adv-x="276" d="M212 592Q266 596 264 620Q263 638 243 666L225 665L232 653Q241 638 225 636Q221 636 218 635L157 630L166 669Q172 695 172 706Q172 723 156 727Q143 730 127 727Q116 725 105 721L101 704L115
706Q129 710 129 695Q128 691 128 688L113 628L79 649Q48 668 36 668Q15 668 12 632Q10 617 10 608L25 598Q26 600 27 612Q29 629 42 622Q45 620 49 618L101 586L68 558Q36 530 36 518Q36 500 66 488Q79 483 87 480L100 491L88 497Q73 504 83 515Q86 517 88 520L134
559L149 524Q167 480 181 480Q185 480 191 483Q210 490 229 517L222 534L213 524Q201 511 195 525Q194 527 192 531L168 589L212 592Z" />
<glyph unicode="+" glyph-name="plus" horiz-adv-x="377" d="M354 519H346L348 513Q349 511 349 509Q349 506 345 506H206L207 638Q207 663 188 665Q181 666 167 659Q162 657 157 654V646L163 649Q170 652 171 645Q171 633 170 506L38 507Q13 507 11 488Q10 481
17 467Q19 462 22 457H30L28 463Q27 465 27 467Q27 470 31 471Q36 471 170 470L169 338Q169 313 188 311Q195 310 209 317L219 322V330L213 328Q211 327 209 327Q206 327 206 331V470L338 469Q363 469 365 488Q367 502 354 519Z" />
<glyph unicode="," glyph-name="comma" horiz-adv-x="117" d="M107 282Q107 302 95 302Q93 302 42 285Q21 278 24 251Q22 218 42 218Q50 218 67 228Q69 220 69 214Q69 169 10 127V115Q103 142 106 266V266Q107 268 107 282Z" />
<glyph unicode="-" glyph-name="hyphen" horiz-adv-x="193" d="M176 412L171 422H163Q163 420 165 416Q168 409 162 408H38Q27 408 22 406Q12 400 11 390Q10 382 22 358H30L28 364Q25 372 32 372H155Q166 372 171 374Q181 380 182 390Q183 398 176 412Z" />
<glyph unicode="." glyph-name="period" horiz-adv-x="105" d="M31 283Q10 276 13 249Q11 216 30 216Q49 216 87 250Q94 257 95 280Q95 300 84 300Q82 300 31 283Z" />
<glyph unicode="/" glyph-name="slash" horiz-adv-x="316" d="M91 39Q84 39 77 43T73 54L184 351H183L298 661Q306 680 304 691Q298 726 247 721Q236 720 219 718L214 705H225Q232 706 239 702T243 690L121 361H122L17 83Q10 64 11 54Q16 18 69 23Q80 24 96 26L101
40Q99 40 91 39Z" />
<glyph unicode="0" glyph-name="zero" horiz-adv-x="334" d="M38 330Q10 392 10 479Q10 567 45 638Q88 727 168 726Q249 725 291 637Q324 566 324 477Q324 389 289 318Q246 229 165 230Q83 231 38 330ZM258 479Q258 555 245 614Q223 710 168 711Q115 711 91 615Q76
556 76 480Q75 403 89 345Q112 248 165 248Q220 247 243 344Q258 404 258 479Z" />
<glyph unicode="1" glyph-name="one" horiz-adv-x="216" d="M140 317L142 691Q142 729 118 729Q97 729 69 716Q62 713 48 705V686Q51 688 61 692Q69 695 75 692Q81 688 81 682Q81 664 82 633H81L79 317Q79 280 64 268T10 256V236L206 235V255Q170 255 155 268T140 317Z" />
<glyph unicode="2" glyph-name="two" horiz-adv-x="333" d="M306 342Q297 323 288 304Q276 285 254 286L80 287Q186 365 229 411Q308 496 309 581Q309 642 266 681T161 721Q62 721 32 633Q21 600 30 571Q38 543 54 543Q73 543 103 571Q112 580 118 587L113 604Q110
601 101 594Q82 580 73 596T65 627Q70 661 96 683T158 704Q197 704 222 674T247 605Q246 451 17 264L10 234L295 232L323 342H306Z" />
<glyph unicode="3" glyph-name="three" horiz-adv-x="324" d="M140 519L285 670L286 711L36 713Q10 713 10 696Q10 682 19 662Q23 653 27 648H39Q39 649 36 656T35 670Q38 678 47 678Q113 677 254 676L72 483H73L71 481L86 485Q97 486 107 486Q159 486 202 448T244
358Q243 309 221 278Q195 243 148 244Q113 244 86 268T59 327Q59 348 69 369Q45 369 30 354T14 315Q13 268 56 243Q92 222 142 222Q210 221 256 257Q306 295 310 361Q314 430 262 476T140 519Z" />
<glyph unicode="4" glyph-name="four" horiz-adv-x="404" d="M368 357Q394 357 394 374Q394 396 377 422H365Q365 420 368 413T369 400Q366 392 357 392Q343 392 343 392Q305 391 314 391L315 682Q315 720 291 720Q270 720 242 707Q235 704 221 696V677Q224 678
234 683Q238 684 241 684Q254 684 254 673Q254 655 255 623H254L253 391Q184 391 173 392Q120 393 99 399Q63 410 63 445Q63 463 73 489L146 681Q148 689 148 695Q148 716 127 717Q118 717 93 706Q80 700 72 695V676Q74 678 85 682Q91 684 99 682Q107 679 105 673Q93
644 14 431Q10 420 10 412Q10 386 35 371Q55 359 83 359Q130 359 253 358L252 308Q251 270 237 258T183 247V227L379 226V245Q344 246 328 259T313 307L314 358L368 357Z" />
<glyph unicode="5" glyph-name="five" horiz-adv-x="328" d="M84 511L85 673L237 672Q246 671 249 663Q251 656 244 641H257Q258 643 265 655Q274 675 274 689Q274 706 248 706Q168 707 42 708L41 500H40V469Q49 474 88 482Q155 487 200 455Q250 420 249 354Q249
304 224 271Q197 235 149 235Q113 235 85 260T57 321Q57 343 67 365Q43 365 27 349T10 309Q10 262 55 235Q92 212 143 212Q219 211 265 245Q316 283 317 357Q318 437 268 478Q222 516 141 516Q112 516 84 511Z" />
<glyph unicode="6" glyph-name="six" horiz-adv-x="390" d="M242 634L246 618Q271 625 295 634Q302 637 302 650Q302 680 270 696Q244 709 211 708Q138 707 80 641Q12 563 11 429Q10 327 81 264Q138 213 199 213Q259 213 309 248Q379 298 380 401Q380 467 339
508T232 549Q198 549 165 533Q126 515 117 486L127 480Q169 524 214 524Q273 524 300 461Q314 429 313 393Q312 331 289 288Q260 234 204 235Q132 237 96 314Q71 367 70 432Q69 501 99 576Q140 680 221 683Q256 685 259 659Q261 643 242 634Z" />
<glyph unicode="7" glyph-name="seven" horiz-adv-x="321" d="M68 701Q48 701 48 701Q29 702 20 688Q10 672 31 654L56 633L67 642Q61 647 56 655Q55 665 67 666T89 668L92 667V668L262 667Q159 566 98 465Q13 324 19 254Q23 211 97 211Q121 211 146 215V237Q104
234 103 280Q101 352 156 450Q234 590 311 667V699L68 701Z" />
<glyph unicode="8" glyph-name="eight" horiz-adv-x="377" d="M153 460Q120 444 96 406T72 331Q72 282 108 252Q141 223 191 223Q245 223 273 262Q299 298 297 353Q295 434 202 461Q181 466 139 476Q44 501 44 576Q44 596 50 619Q73 706 182 710Q214 711 250 688Q297
657 299 605Q301 527 234 520Q213 518 197 544Q248 551 252 610Q254 640 230 664T175 689Q144 690 121 664T97 607Q97 555 160 531Q196 519 266 493Q315 474 337 445Q364 410 365 349Q367 275 309 232Q257 194 181 192Q125 191 72 225Q10 265 10 329Q10 351 19
376Q51 467 118 467Q137 467 153 460Z" />
<glyph unicode="9" glyph-name="nine" horiz-adv-x="390" d="M148 278L144 294Q125 290 95 278Q88 275 88 263Q88 233 120 217Q147 203 179 204Q252 205 310 271Q378 349 379 484Q380 585 309 648Q252 699 191 699Q131 699 81 664Q11 614 10 512Q10 445 50 405T158
364Q191 364 225 380Q264 398 273 426L263 432Q221 389 176 389Q128 389 100 432Q76 469 77 519Q78 582 101 624Q130 678 186 677Q258 676 294 598Q319 544 320 480Q321 411 291 336Q249 232 169 229Q134 228 131 254Q129 270 148 278Z" />
<glyph unicode=":" glyph-name="colon" horiz-adv-x="107" d="M31 292Q10 285 13 258Q11 225 31 225Q48 225 87 259Q96 267 96 289Q96 309 84 309Q82 309 31 292ZM88 499Q97 507 97 529Q97 548 86 548Q86 548 33 531Q12 524 15 498Q13 465 32 465Q49 465 88 499Z" />
<glyph unicode=";" glyph-name="semicolon" horiz-adv-x="118" d="M99 497Q107 505 108 527Q108 547 96 547Q94 547 43 530Q22 523 25 496Q23 463 43 463Q61 463 99 497ZM106 288Q106 307 95 307Q92 307 41 291Q20 284 24 257Q22 224 41 224Q49 224 66 234Q68
226 68 220Q68 174 10 133V120Q102 147 106 272V272V288Z" />
<glyph unicode="&lt;" glyph-name="less" horiz-adv-x="370" d="M10 489L314 282V365L95 514L345 670Q352 674 354 663V658L360 662Q360 682 353 692Q349 697 340 697Q335 696 328 692V692L10 493V489Z" />
<glyph unicode="=" glyph-name="equal" horiz-adv-x="376" d="M22 516H30L28 522Q27 526 28 528Q29 530 32 530Q134 529 339 528Q363 528 365 547Q366 555 360 569Q358 573 355 578H346L349 573Q352 565 345 565Q272 565 38 566Q27 566 22 564Q12 558 11 548Q10
540 17 526L22 516ZM354 466H346L348 460Q350 453 344 453Q271 453 37 454Q14 454 10 436Q10 426 21 404H30Q29 405 27 410Q24 417 31 418Q121 417 338 416Q363 416 365 435Q366 442 359 457Q356 462 354 466Z" />
<glyph unicode="&gt;" glyph-name="greater" horiz-adv-x="370" d="M360 488L56 696V612L275 463L24 307Q18 303 16 314V319L10 315Q10 280 30 280Q34 281 42 286V286L360 484V488Z" />
<glyph unicode="?" glyph-name="question" horiz-adv-x="308" d="M99 273Q86 268 89 249Q87 227 99 227Q104 227 111 231Q134 245 147 258Q152 263 152 278Q152 291 145 291Q145 291 99 273ZM151 737Q98 736 61 706T12 624Q10 615 10 607Q10 591 21 568Q34 542
47 542Q63 542 97 581L89 591Q81 581 74 581Q63 581 63 608Q63 659 97 693Q126 722 157 720Q194 718 215 669Q233 627 228 587Q223 548 184 497Q158 465 131 434Q103 395 103 359Q103 348 105 340L139 343Q137 348 137 354Q137 373 157 402Q167 416 206 445T260
494Q290 533 293 587Q298 664 239 707Q197 738 151 737Z" />
<glyph unicode="@" glyph-name="at" horiz-adv-x="519" d="M250 243Q164 244 103 307T42 456Q43 558 112 617T284 676Q351 676 409 629Q470 579 474 514Q478 443 435 392Q413 366 371 359Q361 357 351 361V362Q341 366 343 385L357 535Q356 540 363 549Q368 551
372 549L380 546L381 557Q380 558 368 564Q347 574 339 573Q325 570 317 553Q316 550 313 546Q294 572 248 572Q198 573 165 542T127 461Q122 411 149 377T227 342Q278 341 300 362Q306 342 326 338Q337 333 357 332Q396 331 435 367Q509 435 503 535Q498 617 438
672T295 728Q176 729 94 654T10 461Q10 364 76 291T238 218Q348 217 436 305L414 312Q324 243 250 243ZM298 394Q295 363 238 364Q181 364 173 442Q169 479 188 513Q210 553 248 552Q269 552 288 540T309 509L298 394Z" />
<glyph unicode="A" glyph-name="A" horiz-adv-x="515" d="M491 255Q482 251 478 259T469 275V275L304 663Q302 666 301 672Q292 696 271 700Q257 703 229 689Q226 687 211 679L210 663Q211 663 222 668Q232 672 237 660Q239 654 236 649L87 296Q75 269 58 260T10
250V228L173 227V249H158Q114 249 114 276Q115 284 120 296L157 387L345 385L404 239Q413 222 434 218Q448 215 483 231Q496 237 505 242V261L491 255ZM168 416L246 604Q248 609 252 622Q257 600 271 565L332 415L168 416Z" />
<glyph unicode="B" glyph-name="B" horiz-adv-x="448" d="M368 479Q332 501 295 503Q304 507 327 522Q375 561 375 609Q375 648 337 681Q307 707 243 702Q205 699 173 679Q165 674 151 664V669Q143 697 116 700Q103 701 74 688Q61 682 55 679V662Q57 663 67 667Q81
673 82 660Q82 660 82 653V635Q83 627 83 619L81 304Q81 268 63 257Q52 250 10 248V226L201 225V247Q164 249 155 259T147 306L150 525Q151 607 209 658Q235 681 263 682Q287 683 301 665T317 622Q318 598 304 567T272 517Q234 480 209 474L218 459Q244 470 264
467Q310 461 337 432T364 356Q364 301 324 270Q292 246 262 251Q231 256 203 290L191 280Q200 267 226 243Q260 220 290 220Q354 221 396 261T438 364Q438 436 368 479Z" />
<glyph unicode="C" glyph-name="C" horiz-adv-x="452" d="M418 364Q399 315 352 283T253 250Q168 251 124 321Q86 380 87 470Q87 554 122 614Q164 687 242 686Q306 686 349 641V641Q355 634 368 604Q371 590 359 574L351 563L368 558Q384 574 399 597Q408 610
408 620Q409 644 386 661V662Q380 666 369 673V673Q307 711 240 711Q137 712 72 636Q10 564 10 459Q10 355 70 287Q133 216 235 215Q302 215 359 250T442 345L418 364Z" />
<glyph unicode="D" glyph-name="D" horiz-adv-x="496" d="M425 623V623Q372 677 268 691Q247 694 226 706V706Q208 718 176 754Q168 767 174 774Q174 775 191 786L177 798Q174 797 155 788Q126 774 113 759Q105 748 105 735Q105 721 114 705Q118 698 134 688T160
677Q182 670 221 664Q273 657 282 655Q298 650 315 644Q336 637 351 622H352Q403 567 402 460Q402 369 365 315Q322 251 235 252Q183 252 168 266T152 331L153 489Q153 545 156 559Q164 593 194 614L176 629Q135 615 109 575Q96 555 82 497V471L81 307Q81 271 63
260Q51 253 10 251V229L249 227Q354 226 419 289T486 458Q486 555 425 623Z" />
<glyph unicode="E" glyph-name="E" horiz-adv-x="417" d="M387 373Q385 338 361 304T305 260Q278 252 226 252Q159 253 153 301L154 455H188Q218 455 230 440Q238 429 243 397H261L262 530H244Q241 476 188 476H154V554Q154 610 183 648Q215 690 270 690Q297 690
320 669T344 621Q344 600 332 588L351 583Q385 617 386 637Q387 658 363 679Q349 688 336 698Q302 717 266 717Q201 718 155 686V690Q145 717 120 719Q106 720 74 706Q60 699 54 696V678Q56 680 66 684Q81 690 82 676Q83 667 81 308Q81 271 63 260Q51 253 10 251V230L397
227L407 373H387Z" />
<glyph unicode="F" glyph-name="F" horiz-adv-x="394" d="M359 680Q350 687 332 700Q300 718 262 718Q195 719 151 688V687Q140 700 137 703Q129 710 118 710Q99 711 69 697Q57 691 48 686V667L61 673Q71 677 81 666Q83 663 84 657L81 306Q81 270 63 259Q50 251
10 250V228L221 226V248Q181 250 168 258Q149 270 150 305L151 361H150L151 456H185Q215 456 226 441Q234 430 238 398H256L257 530H239Q236 475 186 476L151 477L152 533V576Q158 627 187 659T266 691Q293 691 316 670T340 622Q340 604 328 589L347 584Q358 597
369 609Q382 625 382 639Q384 660 359 680Z" />
<glyph unicode="G" glyph-name="G" horiz-adv-x="514" d="M299 431V409H316Q371 409 371 364V299Q371 273 281 250H265Q178 250 132 319Q91 378 92 469Q92 554 130 615Q174 686 254 685Q322 685 366 641V640Q372 634 385 604Q389 590 376 573L368 562L386 557Q407
578 418 596Q426 610 427 620Q428 644 404 661V661Q398 665 387 673L386 672Q324 710 251 710Q146 711 79 638T11 459Q10 368 60 303Q112 235 200 219V219Q223 214 247 214Q255 214 283 217V217Q310 221 388 244Q419 247 441 226L442 363Q442 407 494 407H504V429L299
431Z" />
<glyph unicode="H" glyph-name="H" horiz-adv-x="575" d="M352 695V673Q393 671 405 663Q424 651 423 616L422 546Q368 585 305 585Q214 585 152 517L153 645Q155 696 117 700Q103 702 75 689Q64 684 56 679V663L68 668Q82 674 83 661Q83 661 83 654V636Q84 628
84 619L82 305Q82 269 64 258Q51 250 11 249L10 227L221 225V247Q182 249 169 257Q151 268 151 304V336L152 443Q189 542 263 548Q332 553 376 502T420 380Q420 276 310 205L308 188Q410 219 467 303Q487 333 493 386L492 385V405L493 616Q493 652 512 663Q524
671 564 672L565 694L352 695Z" />
<glyph unicode="I" glyph-name="I" horiz-adv-x="231" d="M150 305L151 337L153 646Q155 697 117 701Q102 703 74 690Q63 685 56 680V664L67 669Q81 676 82 662Q82 662 82 655V637Q83 630 83 621L81 306Q81 270 63 259Q50 251 10 250V228L221 227V248Q180 251
168 258Q149 269 150 305Z" />
<glyph unicode="J" glyph-name="J" horiz-adv-x="182" d="M171 672Q172 694 165 706Q154 725 134 727Q119 729 92 716Q81 711 74 706L73 690Q75 691 85 695Q99 701 100 688Q100 688 100 681V663Q101 654 101 647L97 208Q97 162 73 133Q55 111 10 85V62Q48 76 130
117Q161 133 167 178Q167 182 168 255L171 672Z" />
<glyph unicode="K" glyph-name="K" horiz-adv-x="523" d="M473 671V693L288 694V673Q337 672 337 647Q337 635 315 615L151 466L153 645Q155 696 117 700Q100 702 74 689Q71 687 56 679V663L67 668Q81 675 82 660Q82 660 82 654V636Q83 628 83 619L81 305Q81 268
63 257Q51 250 10 249V227L221 225V247Q181 249 168 257Q149 269 150 304L151 336V428L210 479L410 247Q427 222 451 223Q465 224 495 249Q507 259 513 265L509 283L497 274Q487 266 478 278Q475 283 261 525L377 632Q420 672 473 671Z" />
<glyph unicode="L" glyph-name="L" horiz-adv-x="418" d="M387 373Q384 336 362 303T305 260Q278 252 226 252Q202 252 119 254Q152 269 152 315L154 648Q156 701 118 704Q105 705 76 692Q69 689 57 683V667Q59 668 68 671Q73 673 76 673Q83 673 83 664Q83 667
82 574Q82 454 81 308Q81 271 64 261Q52 254 11 252V252L10 251L11 227H398L408 373H387Z" />
<glyph unicode="M" glyph-name="M" horiz-adv-x="669" d="M656 478Q654 574 574 650Q505 715 425 715Q397 715 369 703L332 687L300 706Q274 718 243 718Q167 718 91 659Q48 626 27 570Q11 529 11 484Q10 398 63 323Q74 302 74 284Q74 262 54 252T10 244V228L190
226L191 243L174 260Q156 275 115 352Q60 455 60 534Q60 660 184 659Q217 659 255 640Q299 617 299 588L297 305Q297 269 278 258Q265 250 226 249L225 227L436 225V247Q396 249 384 257Q366 269 366 304V336L368 587Q368 618 413 638Q450 654 485 654Q519 654
548 635T588 584T599 518Q599 446 552 360Q519 300 478 257Q458 236 458 216Q458 185 498 164L511 174Q500 188 500 200Q500 208 507 213Q659 325 656 478Z" />
<glyph unicode="N" glyph-name="N" horiz-adv-x="553" d="M509 667T543 668V690L356 692V670Q390 668 404 657T418 613L419 302Q419 278 397 278Q385 278 368 288Q329 311 291 364Q284 374 233 452Q159 566 152 615V644Q154 695 116 699Q102 701 74 688Q63 683
55 678V662Q57 663 67 667Q81 673 82 660Q82 653 82 653V635Q83 628 83 619L81 304Q81 269 63 257Q51 249 10 248V226H220V246Q180 249 168 256Q150 267 150 304V335L151 444Q174 397 245 323Q296 271 355 245Q397 227 426 227Q490 227 490 227Q526 227 537 226V248Q497
250 493 252Q478 260 478 298L480 612Q480 650 494 658Z" />
<glyph unicode="O" glyph-name="O" horiz-adv-x="522" d="M178 699L171 664Q155 654 140 638Q79 572 78 466Q77 373 121 312Q170 242 260 242Q350 241 394 311Q430 368 431 464Q431 544 404 600Q371 670 301 685Q278 690 257 680T228 648T224 616L228 602L209
605Q207 609 201 628Q191 659 195 678Q200 707 229 710Q374 727 457 622Q512 552 512 463Q511 356 439 286T260 217Q151 218 81 287T11 466Q11 549 55 612T178 699Z" />
<glyph unicode="P" glyph-name="P" horiz-adv-x="446" d="M423 573Q414 671 308 699Q285 705 265 705Q190 705 153 659V661H152Q152 676 142 687T116 700Q102 702 74 689Q63 684 55 679V663Q57 664 67 668Q81 674 82 661Q82 661 82 654V636Q83 628 83 620L81 305Q81
269 63 258Q50 250 10 249V227L220 226L221 248Q180 250 168 257Q150 268 150 305L153 569Q154 639 216 666Q235 674 256 674Q284 674 310 658Q364 625 359 543Q357 505 331 469Q303 430 267 426Q234 422 193 449L184 435Q198 424 232 407Q277 393 307 402Q436
441 423 573Z" />
<glyph unicode="Q" glyph-name="Q" horiz-adv-x="523" d="M311 249L364 237Q434 266 473 326T512 463Q513 573 443 642T263 712Q154 713 83 644T11 466Q10 360 79 290T254 218V217Q291 216 318 202Q354 184 351 152Q350 139 332 131L344 115Q344 115 396 147Q421
162 421 175Q421 184 411 192Q355 235 251 242Q92 252 93 466Q94 561 130 619Q174 690 263 689Q353 688 395 617Q431 559 430 464Q429 283 311 249Z" />
<glyph unicode="R" glyph-name="R" horiz-adv-x="476" d="M461 289L450 280Q440 272 431 284Q429 288 322 409Q424 447 424 554Q424 670 308 701Q285 707 265 707Q192 707 153 661V663Q149 698 117 702Q102 704 74 691Q63 686 56 681V665L67 670Q78 675 80 669T83
656L82 638Q83 631 83 622L81 307Q81 271 63 260Q50 252 10 251V229L221 228V250Q180 252 168 259Q151 269 151 307L153 571Q153 641 216 668Q235 676 256 676Q284 676 310 660Q364 627 359 545Q357 508 342 477Q323 439 293 431Q281 428 272 428Q251 428 211 451L199
441L363 253Q379 228 404 229Q417 230 448 255Q460 265 466 271L461 289Z" />
<glyph unicode="S" glyph-name="S" horiz-adv-x="354" d="M94 624Q94 654 118 672T173 690Q201 690 232 672T275 630Q284 611 272 607Q266 606 261 604L271 594Q302 599 304 600Q324 606 327 620Q331 639 297 670Q252 711 172 711Q117 711 80 679Q40 646 40 592Q39
528 103 485Q143 465 221 422Q286 385 285 331Q285 289 258 263T189 237Q100 238 67 324Q58 347 70 351Q76 353 81 354L71 366Q45 362 37 359Q18 352 15 336Q10 309 51 269Q105 216 195 216Q261 216 302 255T344 360Q344 430 280 476Q202 517 159 541Q94 577 94
624Z" />
<glyph unicode="T" glyph-name="T" horiz-adv-x="411" d="M386 279Q361 247 297 247Q217 248 174 319Q140 378 140 464Q141 610 217 648L237 658L368 659L369 693L228 694V695Q227 695 226 694L23 696L10 581H31Q44 624 54 636Q69 655 105 659L164 658Q53 590
52 450Q51 351 100 289Q154 221 250 218Q363 214 401 275L386 279Z" />
<glyph unicode="U" glyph-name="U" horiz-adv-x="453" d="M409 675T443 676V698L256 699V677Q291 675 303 666Q318 654 318 620L316 342Q288 265 203 266Q80 267 80 372Q80 397 87 421H86L126 624Q133 648 133 665Q133 676 129 683T120 697T103 705Q89 707 60
693Q53 690 42 684V668Q45 670 53 673Q67 679 68 665Q67 659 60 624Q58 614 11 405L12 404Q10 391 10 379Q10 332 38 295Q88 228 177 227Q263 227 313 269V255H314V227H440V248Q404 250 395 256Q378 267 378 305L380 620Q380 658 394 666Z" />
<glyph unicode="V" glyph-name="V" horiz-adv-x="462" d="M423 642Q407 673 404 677Q389 697 371 697Q358 697 342 688Q321 676 294 663V646Q309 653 320 653Q339 653 356 620Q401 535 401 479Q401 377 332 320Q320 310 309 310Q295 310 287 326V326Q250 398 182
561Q154 627 124 688Q113 698 94 698Q74 698 58 689Q37 677 10 664V647Q32 657 43 653Q54 649 65 624L113 518L225 256Q244 215 256 215Q300 215 363 303Q412 370 436 430Q452 470 452 514Q452 585 423 642Z" />
<glyph unicode="W" glyph-name="W" horiz-adv-x="626" d="M615 388L616 389L568 609Q561 640 560 650Q561 664 575 658L587 653V669Q581 673 568 679Q539 693 524 691Q510 690 497 669Q492 663 492 650Q492 633 499 610L538 407L537 406Q538 397 538 386Q538 252
413 253Q379 253 361 264Q351 270 351 298L352 534Q352 567 366 578T414 590V612L225 613V592Q262 590 270 581T279 535L277 299Q277 299 277 279Q275 270 269 266Q247 254 211 254Q89 255 89 386Q89 399 90 409L89 410L131 612Q138 646 138 653Q138 666 134 672Q126
684 125 685Q118 692 106 693Q88 695 55 679Q49 676 43 672V656Q57 663 63 663Q70 663 70 654Q70 652 62 612Q59 603 11 393L12 392Q10 381 10 369Q10 320 39 283Q91 216 184 215Q269 214 316 243Q382 213 440 213Q533 212 586 279Q616 317 616 367Q616 378 615
388Z" />
<glyph unicode="X" glyph-name="X" horiz-adv-x="511" d="M501 680V693Q487 697 468 697Q388 697 330 630Q318 616 264 527L263 528H264L226 585Q226 587 224 590L189 644H188L171 671Q160 690 147 697Q126 709 109 701Q97 695 81 669Q77 662 71 652L81 638L87
648Q95 661 104 649Q104 649 108 643L118 628Q122 622 128 614L131 610L226 464Q169 360 136 319Q81 251 10 244V230Q24 227 43 227Q124 227 182 293Q190 302 258 415L313 330Q314 328 316 325L351 271L369 245Q396 201 430 215Q444 221 459 246Q465 255 468 263L459
277Q458 275 453 268T443 261Q440 261 436 266Q436 267 432 272L421 288Q416 294 411 302L409 306L297 477Q326 528 375 604Q430 672 501 680Z" />
<glyph unicode="Y" glyph-name="Y" horiz-adv-x="428" d="M390 694Q370 705 357 713L347 707Q354 703 363 689Q364 680 354 665Q322 617 317 607L230 480Q197 529 140 627Q115 670 88 711Q80 716 70 716Q58 716 39 704Q24 693 10 683L12 672Q27 681 35 678Q44
676 53 661L191 430H190L191 429L190 307Q190 271 172 260Q160 253 119 251V229L329 228L330 250Q291 251 278 259Q259 271 259 307L260 419Q261 420 261 421V421Q295 479 360 572Q394 621 414 655Q418 679 390 694Z" />
<glyph unicode="Z" glyph-name="Z" horiz-adv-x="514" d="M491 278Q435 219 346 224Q308 226 255 253Q197 283 180 286Q155 291 140 292L414 686V695L55 698L41 581H64Q89 671 167 670L320 669L29 253H30L10 224Q46 239 91 239Q123 239 148 232L240 206Q278 197
312 195Q379 191 444 222Q471 235 504 269L491 278Z" />
<glyph unicode="[" glyph-name="bracketleft" horiz-adv-x="119" d="M11 74L15 683Q13 729 47 732Q61 733 109 708V694L99 698Q92 701 85 699Q77 697 77 690Q77 691 73 66Q73 66 73 60Q73 49 86 54L96 58V44Q92 42 80 35Q56 24 42 25Q10 28 10 74H11Z" />
<glyph unicode="\" glyph-name="backslash" horiz-adv-x="316" d="M225 39Q232 39 238 43T243 54L17 661Q10 681 11 691Q16 726 69 721Q80 720 96 718L101 705H91Q83 706 77 702T73 690L298 83Q306 65 304 54Q298 18 246 23Q239 24 219 26L214 40Q217 40 225 39Z" />
<glyph unicode="]" glyph-name="bracketright" horiz-adv-x="118" d="M108 74L104 683Q106 729 72 732Q59 733 34 721Q27 717 10 708V694L20 698Q27 701 34 699Q42 697 42 690Q43 586 46 66Q46 61 46 60Q45 49 33 54L23 58V44Q27 42 39 35Q63 24 76 25Q108 28 108 74Z" />
<glyph unicode="^" glyph-name="asciicircum" horiz-adv-x="425" d="M383 473Q367 497 318 571Q283 624 275 634Q253 663 238 663Q230 663 223 654Q191 612 93 475H10Q86 581 171 694Q198 730 219 730Q240 730 269 693Q280 679 340 588Q357 563 415 473H383Z" />
<glyph unicode="_" glyph-name="underscore" horiz-adv-x="376" d="M359 170L354 180H346L348 174Q350 167 344 166Q256 167 37 168Q13 168 10 149Q10 142 16 127Q19 122 21 118H30L27 124Q23 131 31 131Q104 131 338 130Q363 130 365 149Q366 156 359 170Z" />
<glyph unicode="`" glyph-name="grave" horiz-adv-x="133" d="M39 647Q31 635 20 616Q13 605 10 593L22 578Q28 597 40 599Q43 599 101 557L123 578L97 611Q62 655 51 655Q45 655 39 647Z" />
<glyph unicode="a" glyph-name="a" horiz-adv-x="393" d="M361 276Q361 274 359 271Q355 257 352 254T336 252Q317 253 317 284L318 491Q318 491 318 502Q318 507 325 510Q332 512 337 510L348 505V521Q342 525 330 531Q302 545 289 542Q269 539 261 515Q260 513
257 505Q227 541 164 541Q96 541 54 499T11 388Q10 319 53 273T164 226Q234 226 260 253Q274 217 316 217Q367 216 383 276H361ZM176 256Q129 256 100 301Q74 340 74 390Q74 438 96 473Q121 515 166 514Q195 514 221 499Q252 481 255 455L254 297Q254 255 176 256Z"
/>
<glyph unicode="b" glyph-name="b" horiz-adv-x="332" d="M313 424Q296 473 256 502T164 532Q141 532 120 526H121L118 510H119Q129 514 140 514Q180 514 214 478Q243 447 257 405Q267 375 267 344Q267 302 248 271Q225 235 185 235Q138 235 106 272T73 358Q73
375 76 392Q86 451 130 648V648L143 702Q148 723 119 737Q109 742 77 735Q70 734 57 730L54 715Q55 715 65 717Q70 718 76 714T81 704Q80 700 71 663V663Q57 600 15 404Q10 381 10 362Q10 322 28 293Q77 216 164 216Q244 216 292 283Q322 324 322 374Q322 398 313
424Z" />
<glyph unicode="c" glyph-name="c" horiz-adv-x="292" d="M171 247Q124 251 98 294Q76 331 76 382Q76 430 101 471Q130 520 175 518Q194 517 214 500T235 465Q235 453 226 443L243 422Q273 439 274 468Q274 487 250 507Q210 539 160 539Q86 539 41 475Q10 431
10 378Q10 298 70 250Q110 218 158 218Q236 218 282 288L261 290Q233 242 171 247Z" />
<glyph unicode="d" glyph-name="d" horiz-adv-x="339" d="M326 412L264 710Q263 715 269 719T280 722L291 720L288 735Q284 736 269 740Q238 747 227 742Q196 728 201 708L214 655L242 518Q202 535 163 535Q55 535 19 417Q10 388 10 362Q10 259 123 225Q149 217
174 217Q241 217 286 268Q329 316 329 384Q329 398 326 412ZM129 245Q70 262 70 333Q70 362 80 395Q115 510 186 510Q196 510 209 507Q261 495 261 397Q261 365 256 347Q226 241 155 241Q143 241 129 245Z" />
<glyph unicode="e" glyph-name="e" horiz-adv-x="295" d="M170 245Q76 246 77 390L159 389V415H78Q79 454 97 481Q118 512 155 512Q205 511 218 460H272Q239 538 159 539Q91 539 51 492T10 375Q10 307 51 262T159 217Q239 216 285 289L264 300Q224 245 170 245Z" />
<glyph unicode="f" glyph-name="f" horiz-adv-x="289" d="M257 690Q221 722 175 722Q148 722 123 710V710Q85 690 71 635Q63 601 62 532L60 308Q59 251 11 250L10 227L184 226V248Q149 250 135 262T121 308L122 510L188 509L189 531L123 532V617Q123 647 141 674T188
701Q206 701 224 684T243 648Q243 636 234 626L251 605Q278 624 279 651Q278 671 257 690Z" />
<glyph unicode="g" glyph-name="g" horiz-adv-x="351" d="M324 517Q295 530 284 528Q262 524 255 502L252 492Q222 527 160 527Q93 527 52 486T10 377Q10 308 51 263T160 217Q224 217 249 238V142Q249 101 224 73Q187 44 163 44Q142 44 119 59T91 95Q86 111 108
120L100 132Q50 102 44 80Q39 63 74 32T127 0Q168 0 217 27Q237 39 277 63Q303 78 308 117Q310 130 310 183L312 478Q312 478 312 488Q312 493 319 495T331 497L341 492V507Q338 509 324 517ZM249 286Q249 245 172 246Q126 246 97 291Q72 329 72 378Q72 424 93
459Q119 501 162 501Q191 501 217 486Q247 468 250 442L249 286Z" />
<glyph unicode="h" glyph-name="h" horiz-adv-x="397" d="M240 541Q168 547 122 495L124 682Q125 701 119 711Q109 728 92 730Q79 732 54 720Q43 715 38 712V698L48 702Q61 707 61 695Q61 692 62 690L60 309Q60 252 10 251V228L169 227L170 250Q121 251 121 309L122
456Q155 504 213 503Q262 502 288 446Q309 403 309 348Q310 234 218 193L217 175Q367 220 381 362Q387 425 345 480T240 541Z" />
<glyph unicode="i" glyph-name="i" horiz-adv-x="180" d="M125 617Q131 623 132 643Q132 659 123 659Q118 659 111 657Q92 649 67 640Q49 634 53 610Q51 582 67 582Q86 582 125 617ZM121 308L122 490Q124 536 90 539Q78 540 53 529Q45 525 37 520V506L47 510Q59
515 60 504Q60 504 60 498V308Q60 250 10 250V227L169 226L170 249Q121 250 121 308Z" />
<glyph unicode="j" glyph-name="j" horiz-adv-x="188" d="M175 483Q176 505 169 517Q157 538 137 540Q125 541 94 528Q81 522 74 518V501Q78 502 86 506Q101 513 102 499Q102 499 102 492V473Q103 464 103 456L100 176Q100 131 75 100Q55 75 10 50V26Q49 39 134
83Q165 99 172 146Q172 149 173 225L175 483ZM171 620Q178 626 178 646Q178 662 169 662Q164 662 157 660Q136 651 112 643Q95 637 98 613Q97 585 113 585Q132 585 171 620Z" />
<glyph unicode="k" glyph-name="k" horiz-adv-x="362" d="M339 282Q335 278 322 272Q312 270 298 282L183 442Q229 476 247 488Q254 493 260 490Q264 487 263 481Q262 475 256 472Q273 463 287 472Q303 482 303 499Q303 513 289 522T260 532Q235 532 210 510L122
450L123 680H124Q124 726 92 729Q80 730 54 719Q45 714 38 710V696L48 700Q61 705 61 694Q61 690 62 688L60 308Q60 250 10 249V227L169 226L170 248Q121 249 121 307V396L144 413L227 300Q244 277 284 229Q291 221 298 221Q305 221 324 240L352 268L339 282Z"
/>
<glyph unicode="l" glyph-name="l" horiz-adv-x="179" d="M120 308L123 680Q125 724 91 729Q78 731 54 719Q54 719 38 711L37 696L48 701Q60 707 61 694Q61 694 61 689L59 308Q59 250 10 250V227L169 226V249Q120 250 120 308Z" />
<glyph unicode="m" glyph-name="m" horiz-adv-x="525" d="M484 300Q487 310 504 356Q515 387 515 408Q515 428 509 448Q482 537 404 538Q352 538 306 496Q284 539 227 540Q173 540 122 499V500Q124 546 90 549Q78 550 53 539Q47 536 36 530V516L46 520Q59 525
60 514Q60 514 60 508L59 308Q59 251 10 250V227L169 226V249Q119 250 120 308L122 474Q158 503 191 503Q255 502 254 431L253 308Q253 250 204 249V227L363 226V248Q315 250 315 307L316 469Q329 501 372 501Q406 501 433 478T460 422Q460 414 431 332Q422 307
422 282Q422 206 511 189L513 206Q477 213 477 258Q477 276 484 300Z" />
<glyph unicode="n" glyph-name="n" horiz-adv-x="355" d="M311 306Q315 316 333 362Q345 393 345 414Q345 432 338 454Q309 543 223 544Q169 544 122 507Q122 543 90 546Q78 547 53 536Q53 536 37 528L36 513L47 517Q59 523 60 511Q60 511 60 505L59 308Q59 251
10 250V227L169 226V249Q119 250 120 308L122 481Q156 507 188 507Q223 507 253 485T284 428Q284 417 253 338Q243 313 243 288Q243 212 341 194L343 212Q304 219 304 264Q304 282 311 306Z" />
<glyph unicode="o" glyph-name="o" horiz-adv-x="342" d="M242 237Q200 216 162 216Q76 216 31 306Q10 348 10 390Q10 480 100 525Q140 545 178 545Q265 545 313 450Q332 412 332 373Q332 282 242 237ZM109 505Q62 482 62 431Q62 393 92 333Q136 246 195 246Q213
246 233 256Q279 279 279 332Q279 370 254 419Q205 515 149 515Q130 515 109 505Z" />
<glyph unicode="p" glyph-name="p" horiz-adv-x="375" d="M216 537Q154 537 124 503L121 513Q114 536 93 540Q81 542 52 529Q46 526 35 520V504L45 509Q50 510 57 508T64 500V489L60 95Q60 83 57 78Q48 63 10 54L11 32H45Q85 32 109 57Q122 70 122 84Q122 138
125 453Q129 479 159 496Q186 511 214 511Q257 510 282 469Q303 434 303 389Q303 340 277 301Q248 256 201 256Q160 256 141 267L143 252Q170 227 213 227Q280 226 322 271T365 385Q365 452 324 494T216 537Z" />
<glyph unicode="q" glyph-name="q" horiz-adv-x="370" d="M314 78Q310 83 310 95L311 220H310L311 280Q311 284 311 284L313 488Q312 494 320 506Q326 509 332 507L343 502V517Q339 520 326 527Q298 541 285 539Q266 535 257 512L253 502Q224 537 162 538Q95 539
54 498T11 389Q10 320 51 275T160 228Q223 227 249 249L248 85Q248 72 261 58Q286 32 325 32Q350 32 359 31L360 54Q347 54 330 63Q319 69 314 78ZM249 297Q248 256 172 257Q127 258 98 302Q72 341 72 389Q72 435 95 471Q121 513 164 512Q192 512 218 496Q248 478
251 452L249 297Z" />
<glyph unicode="r" glyph-name="r" horiz-adv-x="273" d="M250 502Q215 538 176 538Q149 538 118 523Q108 543 90 545Q77 546 52 535Q43 530 36 526V512L46 516Q59 521 59 510Q60 507 60 504L59 307Q59 250 10 249V226L169 225V248Q120 249 120 307L121 435Q121
465 136 487Q152 513 181 512Q226 511 226 473Q226 459 214 450L224 435Q263 452 263 476Q263 488 250 502Z" />
<glyph unicode="s" glyph-name="s" horiz-adv-x="228" d="M63 470Q63 512 105 511Q143 511 156 480Q162 466 154 463L146 461L153 454Q169 456 177 458Q192 463 194 472Q196 484 175 507Q147 538 100 538Q62 538 39 515T16 453Q15 412 56 383Q123 348 126 346Q171
317 171 289Q171 269 156 257T119 244Q82 245 57 272Q54 276 51 281Q44 296 61 300L53 307Q37 305 30 303Q15 298 13 289Q10 275 32 250Q61 217 117 216Q159 216 188 242T218 309Q218 353 178 382Q144 400 109 418Q63 446 63 470Z" />
<glyph unicode="t" glyph-name="t" horiz-adv-x="266" d="M241 285Q209 254 189 254Q152 254 153 310L154 419V419L155 503H236V504H237V526H236L156 527V592Q158 638 124 641Q112 642 87 631Q79 627 71 622V608Q73 609 81 612Q93 618 94 606Q94 606 94 600V527H18L10
454H23Q31 481 39 491T70 503L94 504L92 314Q91 217 166 217Q219 217 256 273L241 285Z" />
<glyph unicode="u" glyph-name="u" horiz-adv-x="336" d="M277 303L278 535L168 536V513Q217 512 217 454L218 290Q213 255 156 255Q120 255 92 273Q60 294 60 328Q60 339 63 348Q79 393 95 449Q99 463 99 478Q99 541 23 547L17 535Q48 519 48 486Q48 473 22 402Q10
369 10 345Q10 329 16 310Q28 272 59 248T130 223Q184 223 219 247V224H324L326 244Q277 246 277 303Z" />
<glyph unicode="v" glyph-name="v" horiz-adv-x="313" d="M284 499Q278 512 265 530Q251 542 230 530Q219 524 198 513V502Q213 509 220 506Q230 502 239 485Q266 434 266 392Q266 323 225 290Q216 283 211 283Q202 283 199 294V294Q175 337 129 449Q112 490 90
534Q83 541 72 541Q60 541 40 531Q25 522 10 514V503Q24 510 32 507Q41 503 47 488L78 417L147 255Q150 251 151 247L152 244Q164 217 173 217Q202 217 244 275Q276 320 292 359Q303 386 303 415Q303 462 284 499Z" />
<glyph unicode="w" glyph-name="w" horiz-adv-x="474" d="M464 508V531L305 532V509Q355 508 354 450L353 411V308Q353 298 351 288Q346 275 331 262T303 249V249Q290 246 281 246Q248 244 223 277Q200 306 200 340Q200 362 209 382Q226 419 253 483Q267 515 255
531Q247 542 230 542Q216 542 198 532Q184 524 169 516V501Q182 506 190 506Q194 506 197 505Q210 497 210 487Q210 483 207 478Q197 456 162 380Q152 358 152 331Q152 288 181 258Q165 248 139 247Q106 246 81 278Q58 307 58 341Q58 363 67 383Q84 420 111 484Q125
516 113 532Q105 543 88 543Q74 543 56 533Q42 525 27 517V502Q47 510 55 505Q68 498 68 488Q68 484 65 479Q54 456 20 381Q10 359 10 332Q10 286 43 254T123 221Q157 221 194 246Q226 221 258 221Q330 221 352 249V226H462V248Q414 250 414 307L415 450Q416 507
464 508Z" />
<glyph unicode="x" glyph-name="x" horiz-adv-x="370" d="M350 284L345 275Q339 264 330 273Q330 273 326 278L225 405Q240 430 264 468Q306 520 360 525V536Q349 538 335 538Q274 538 230 488Q219 476 198 440Q121 536 117 538Q98 547 82 539Q71 534 58 511Q53
502 50 495L59 483L64 492Q70 503 79 494Q79 494 83 489L162 389Q141 352 105 296Q64 244 10 239V229Q21 226 35 226Q96 226 140 276Q147 284 189 353V355Q288 231 292 228Q311 219 327 227Q338 233 351 256Q356 265 359 272L350 284Z" />
<glyph unicode="y" glyph-name="y" horiz-adv-x="291" d="M280 197L281 539H172V516Q219 515 220 457L222 294Q216 258 159 259Q122 259 95 276Q64 296 64 331Q64 343 67 352Q75 377 98 453Q102 467 102 481Q102 544 26 551L20 538Q51 522 51 489Q51 479 25 405Q14
374 14 348Q14 298 49 263T134 226Q186 225 222 251L219 156Q218 113 194 87Q157 58 133 58Q111 58 89 73T61 109Q57 125 78 134L70 145Q49 132 38 123Q19 107 15 94Q10 77 45 46T98 14Q139 14 187 41Q207 53 247 77Q274 93 279 131Q280 137 280 197Z" />
<glyph unicode="z" glyph-name="z" horiz-adv-x="365" d="M346 260Q307 219 245 222Q219 223 182 242Q140 263 129 266Q123 267 116 268L299 516V539L52 540L41 451H61Q83 492 83 493Q99 517 120 517L225 516L45 272H44L24 242H25L10 222Q36 233 67 233Q89 233
107 228Q138 219 171 210Q195 203 221 202Q268 199 313 221Q332 230 355 254L346 260Z" />
<glyph unicode="{" glyph-name="braceleft" horiz-adv-x="264" d="M242 161H237Q238 160 239 157Q240 154 237 153H196Q156 158 142 185Q129 206 130 249Q131 278 132 353Q133 440 73 451V454Q110 462 123 487Q133 505 133 547Q133 1012 131 618Q131 664 143 689Q158
722 195 728H242Q246 727 244 724L243 720H248Q254 734 254 738Q253 742 248 746Q245 747 239 747H186Q116 747 95 710Q78 681 79 604Q79 604 80 568Q80 540 80 517Q80 485 60 473Q46 465 10 463V434Q53 431 61 427Q79 418 79 384Q78 343 76 237Q74 134 181 134H233Q244
134 248 143Q249 149 242 161Z" />
<glyph unicode="|" glyph-name="bar" horiz-adv-x="70" d="M60 715L56 104H10L14 715H60Z" />
<glyph unicode="}" glyph-name="braceright" horiz-adv-x="264" d="M22 161H26Q26 160 25 157Q24 154 27 153H67Q107 158 122 184Q135 206 134 249Q133 278 132 353Q131 440 191 451V454Q153 462 140 488Q131 507 130 651Q129 719 69 728H22Q18 727 20 724L21
720H16Q10 734 10 738Q10 742 16 746Q19 747 25 747H77Q149 747 169 710Q185 681 185 604Q185 597 185 568Q184 539 184 517Q184 485 204 473Q218 465 254 463V434Q211 431 203 427Q185 418 185 384Q186 343 188 237Q190 134 83 134H31Q21 134 16 143Q15 149 22
161Z" />
<glyph unicode="~" glyph-name="asciitilde" horiz-adv-x="246" d="M220 421Q217 425 213 428L205 426L209 421Q213 417 213 408Q214 397 204 396Q188 396 136 408T57 421Q40 421 27 413Q10 403 14 387Q17 374 35 362L43 365L39 369Q31 377 40 384Q44 387 58 387Q79
387 141 377Q197 368 204 370Q221 373 230 383Q236 391 233 403Q232 409 220 421Z" />
</font>
</defs>
</svg>
